<svg width="24" height="24" viewBox="0 0 24 24"  xmlns="http://www.w3.org/2000/svg">
    <path fill-rule="evenodd" clip-rule="evenodd" d="M12 24C5.373 24 0 18.627 0 12S5.373 0 12 0s12 5.373 12 12-5.373 12-12 12zm9.95-11h-4.965a29.32 29.32 0 0 1-.242 3h4.425a9.934 9.934 0 0 0 .783-3zM20 18H16.39c-.303 1.349-.712 2.533-1.213 3.485A10.02 10.02 0 0 0 20.001 18zm-5.289-2c.14-.933.234-1.942.271-3H9.018c.037 1.058.132 2.067.27 3h5.423zm-5.033 2h4.644c-.6 2.433-1.502 4-2.322 4-.82 0-1.723-1.567-2.322-4zm-2.421-2a29.336 29.336 0 0 1-.242-3H2.05a9.936 9.936 0 0 0 .783 3h4.425zm-3.258 2h3.612c.303 1.349.712 2.533 1.213 3.485A10.021 10.021 0 0 1 3.999 18zm12.986-7a29.318 29.318 0 0 0-.242-3h4.425c.408.934.678 1.943.783 3h-4.966zm-1.809-8.485c.501.952.91 2.136 1.213 3.485H20a10.02 10.02 0 0 0-4.825-3.485zM12 2c-.82 0-1.723 1.567-2.322 4h4.644c-.6-2.433-1.502-4-2.322-4zm2.982 9a26.873 26.873 0 0 0-.27-3H9.288a26.894 26.894 0 0 0-.271 3h5.964zM8.824 2.515C8.323 3.467 7.914 4.65 7.61 6H4a10.021 10.021 0 0 1 4.825-3.485zM7.257 8H2.832a9.936 9.936 0 0 0-.783 3h4.966c.032-1.043.114-2.049.242-3z"/>
</svg>
