<svg xmlns="http://www.w3.org/2000/svg" width="16" height="16" viewBox="0 0 16 16">
    <g>
        <g>
            <path d="M8 3c2.946 0 5.612 1.667 8 5-2.388 3.333-5.054 5-8 5-2.946 0-5.612-1.667-8-5 2.388-3.333 5.054-5 8-5zm0 1C5.58 4 3.338 5.303 1.247 8 3.338 10.697 5.58 12 8 12c2.333 0 4.501-1.212 6.529-3.716L14.753 8l-.224-.284C12.5 5.212 10.333 4 8 4zm0 1c1.657 0 3 1.343 3 3s-1.343 3-3 3-3-1.343-3-3 1.343-3 3-3zm0 1c-1.105 0-2 .895-2 2s.895 2 2 2 2-.895 2-2-.895-2-2-2z" transform="translate(-406 -337) translate(126 139) translate(280 198)"/>
            <path d="M3.384 14.32L13.384 2.32 12.616 1.68 2.616 13.68z" transform="translate(-406 -337) translate(126 139) translate(280 198)"/>
        </g>
    </g>
</svg>
 