<svg width="16" height="16" viewBox="0 0 16 16" xmlns="http://www.w3.org/2000/svg">
    <path d="M8 10a2 2 0 1 0 0-4 2 2 0 0 0 0 4zm0 3a1 1 0 0 1 1 1v1a1 1 0 0 1-2 0v-1a1 1 0 0 1 1-1zM4.414 3l1.554 1.554A3.981 3.981 0 0 1 8 4c.742 0 1.436.202 2.032.554L11.586 3A1 1 0 0 1 13 4.414l-1.554 1.554C11.798 6.564 12 7.258 12 8s-.202 1.436-.554 2.032L13 11.586A1 1 0 0 1 11.586 13l-1.555-1.553A3.981 3.981 0 0 1 8 12a3.981 3.981 0 0 1-2.031-.553L4.414 13A1 1 0 1 1 3 11.586l1.553-1.555A3.981 3.981 0 0 1 4 8c0-.741.202-1.436.553-2.031L3 4.414A1 1 0 0 1 4.414 3zM2 7a1 1 0 1 1 0 2H1a1 1 0 1 1 0-2h1zm13 0a1 1 0 0 1 0 2h-1a1 1 0 0 1 0-2h1zM8 0a1 1 0 0 1 1 1v1a1 1 0 1 1-2 0V1a1 1 0 0 1 1-1z"/>
</svg>
