<svg width="110" height="16" viewBox="0 0 110 16" fill="none" xmlns="http://www.w3.org/2000/svg">
    <path fill-rule="evenodd" clip-rule="evenodd" d="M19.516 2.667h-2.661V0h2.661v2.667zM11.828 13.59 7.097 8.373 2.366 13.59V3.556H0V16h2.174c.628 0 1.23-.254 1.673-.705l3.25-3.71 3.25 3.71a2.344 2.344 0 0 0 1.672.705h2.175V3.556h-2.366V13.59zM16.855 16h2.661V3.556h-2.661V16zm62.984 0H82.5V3.556h-2.661V16zM82.5 2.667h-2.661V0H82.5v2.667zm-55 .889a5.37 5.37 0 0 0-2.866.825v-.825h-2.457V16h2.457V8.774c0-1.552 1.283-2.81 2.866-2.81 1.583 0 2.866 1.258 2.866 2.81V16h2.457V8.774c0-2.882-2.383-5.218-5.323-5.218zm35.51 2.408a3.818 3.818 0 0 0-3.822 3.814 3.818 3.818 0 0 0 3.822 3.813c1.055 0 2.01-.426 2.703-1.116l1.706 1.703A6.224 6.224 0 0 1 63.01 16c-3.443 0-6.235-2.786-6.235-6.222 0-3.436 2.792-6.222 6.236-6.222 1.692 0 3.224.674 4.348 1.766l-1.765 1.65a3.809 3.809 0 0 0-2.583-1.008zm8.532-1.583v-.825h-2.348V16h2.348V8.774c0-1.552 1.226-2.81 2.739-2.81.856 0 1.62.404 2.122 1.035l1.661-1.705c-.93-1.064-2.279-1.738-3.783-1.738-1.01 0-1.948.305-2.74.825zm35.017 8.106a3.677 3.677 0 0 0 1.033-2.69l2.405.011c.047 1.592-.512 3.182-1.691 4.391-2.357 2.418-6.289 2.399-8.782-.043-2.492-2.442-2.602-6.381-.245-8.8 2.358-2.418 6.289-2.398 8.782.044.351.343.65.719.906 1.114l-.162.166-1.563 1.603-1.466 1.504-3.395 3.482c1.408.608 3.074.351 4.178-.782zm-.973-6.009-5.043 5.173c-.871-1.46-.723-3.346.483-4.583 1.207-1.237 3.084-1.43 4.56-.59zm-54.274-.625-.012.002c-.228.05-.452.15-.664.31a1.732 1.732 0 0 0-.162.175c-.466.58-.263 1.38.453 1.79l.185.105 1.483.846.74.423.186.105c1.945 1.11 2.495 3.284 1.23 4.855-.015.02-.032.037-.048.054a1.44 1.44 0 0 0-.035.039c-.743.93-2.082 1.443-3.529 1.443-1.605 0-3.057-.675-4.123-1.766l1.674-1.651s2.19 1.982 3.626.839c.08-.075.15-.15.211-.226.466-.58.264-1.38-.453-1.789l-.185-.105-.741-.423-1.483-.846-.185-.106c-1.944-1.11-2.495-3.283-1.23-4.855.166-.206.36-.386.566-.55l.006-.005.036-.03.01-.007c.041-.033.083-.065.127-.095.753-.549 1.766-.83 2.769-.83 1.605 0 3.058.676 4.123 1.767l-1.673 1.651s-1.51-1.403-2.882-1.124a.457.457 0 0 1-.02.004zM42.58 3.556V0h2.66v16h-4.434c-3.43 0-6.21-2.786-6.21-6.222 0-3.437 2.78-6.222 6.21-6.222h1.774zm-1.775 2.666h1.775v7.111h-1.775a3.552 3.552 0 0 1-3.548-3.555 3.552 3.552 0 0 1 3.548-3.556zm47.017-2.666h1.774c3.43 0 6.21 2.785 6.21 6.222 0 3.436-2.78 6.222-6.21 6.222H85.16V0h2.662v3.556zm0 9.777v-7.11h1.774a3.552 3.552 0 0 1 3.548 3.555 3.552 3.552 0 0 1-3.548 3.555h-1.774z" fill="#fff"/>
</svg>
