<svg width="60" height="60" viewBox="0 0 60 60" fill="none" xmlns="http://www.w3.org/2000/svg">
    <path fill-rule="evenodd" clip-rule="evenodd" d="M30 60c16.569 0 30-13.431 30-30C60 13.431 46.569 0 30 0 13.431 0 0 13.431 0 30c0 16.569 13.431 30 30 30zm0-12c9.941 0 18-8.059 18-18 0-8.387-5.736-15.435-13.5-17.433v3.12C40.586 17.598 45 23.284 45 30c0 8.284-6.716 15-15 15-8.284 0-15-6.716-15-15 0-6.716 4.414-12.402 10.5-14.313v-3.12C17.736 14.565 12 21.613 12 30c0 9.941 8.059 18 18 18zm1.5-19v.5a1.5 1.5 0 0 1-3 0v-22a1.5 1.5 0 0 1 3 0V29z" fill="#fff"/>
</svg>
