<svg width="24" height="24" viewBox="0 0 24 24" xmlns="http://www.w3.org/2000/svg">
<path fill-rule="evenodd" d="M2.15519 7.67323L2.3474 8.73037C3.27429 13.8283 6.35307 18.2795 10.7961 20.9453L12 21.6676L13.0514 21.0368C17.5737 18.3234 20.6785 13.7632 21.5456 8.56109L21.858 6.68643L17.9328 2.7612C14.6934 5.18056 10.2463 5.1496 7.04867 2.77976L2.15519 7.67323ZM0 7L0.379661 9.08814C1.40954 14.7525 4.8304 19.6982 9.76715 22.6603L12 24L14.0804 22.7518C19.1052 19.7369 22.555 14.67 23.5184 8.88989L24 6L18 0L17.5227 0.477316C14.8724 3.1276 10.6997 3.23296 7.9259 0.925903C7.59582 0.651358 7.28554 0.342649 7 0L0 7Z"/>
</svg>
